<svg xmlns="http://www.w3.org/2000/svg" viewBox="0 0 640 400" font-family="Segoe UI, sans-serif">
  <rect width="640" height="400" rx="16" fill="#f6f7fb"/>
  <rect x="0" y="0" width="160" height="400" rx="16" fill="#171826"/>
  <rect x="150" y="0" width="10" height="400" fill="#171826"/>
  <text x="24" y="42" fill="#fff" font-size="16" font-weight="700">✳ YourApp</text>
  <rect x="16" y="70" width="128" height="34" rx="10" fill="#6d5efc"/>
  <text x="32" y="92" fill="#fff" font-size="13" font-weight="600">Dashboard</text>
  <text x="32" y="134" fill="#9aa0b8" font-size="13">Browse</text>
  <text x="32" y="166" fill="#9aa0b8" font-size="13">Add new</text>
  <text x="32" y="198" fill="#9aa0b8" font-size="13">Settings</text>
  <text x="184" y="44" fill="#14162b" font-size="22" font-weight="800">Dashboard</text>
  <rect x="184" y="66" width="132" height="80" rx="14" fill="#fff" stroke="#e7e8f0"/>
  <text x="200" y="96" fill="#6b7186" font-size="11" font-weight="700">TOTAL</text>
  <text x="200" y="128" fill="#14162b" font-size="26" font-weight="800">128</text>
  <rect x="328" y="66" width="132" height="80" rx="14" fill="#fff" stroke="#e7e8f0"/>
  <text x="344" y="96" fill="#6b7186" font-size="11" font-weight="700">THIS WEEK</text>
  <text x="344" y="128" fill="#22c55e" font-size="26" font-weight="800">+12</text>
  <rect x="472" y="66" width="144" height="80" rx="14" fill="#fff" stroke="#e7e8f0"/>
  <text x="488" y="96" fill="#6b7186" font-size="11" font-weight="700">USERS</text>
  <text x="488" y="128" fill="#14162b" font-size="26" font-weight="800">7</text>
  <rect x="184" y="162" width="432" height="150" rx="14" fill="#fff" stroke="#e7e8f0"/>
  <text x="204" y="192" fill="#14162b" font-size="15" font-weight="700">Recent activity</text>
  <line x1="204" y1="212" x2="596" y2="212" stroke="#e7e8f0"/>
  <line x1="204" y1="244" x2="596" y2="244" stroke="#e7e8f0"/>
  <line x1="204" y1="276" x2="596" y2="276" stroke="#e7e8f0"/>
  <text x="184" y="344" font-size="12" fill="#9aa0b8">Mockup — a generic app shell to sketch layouts before you build them.</text>
</svg>
